<svg xmlns="http://www.w3.org/2000/svg" xmlns:xlink="http://www.w3.org/1999/xlink" viewBox="0 0 2520 520"><filter id="n"><feGaussianBlur stdDeviation="1"/></filter><path fill="#231F20" stroke="#000" stroke-width="1.134" stroke-miterlimit="10" d="M1039.395 230.849c-60.315 0-109.211 49.135-109.211 109.745s48.896 109.744 109.211 109.744c60.314 0 109.21-49.135 109.21-109.744s-48.896-109.745-109.21-109.745zm0 210.469c-55.356 0-100.235-45.098-100.235-100.725s44.879-100.724 100.235-100.724 100.234 45.097 100.234 100.724-44.878 100.725-100.234 100.725z"/><path fill="#231F20" stroke="#000" stroke-width="1.134" stroke-miterlimit="10" d="M1503.166 230.849c-60.315 0-109.211 49.135-109.211 109.745s48.896 109.744 109.211 109.744 109.211-49.135 109.211-109.744-48.896-109.745-109.211-109.745zm0 210.469c-55.356 0-100.234-45.098-100.234-100.725s44.878-100.724 100.234-100.724 100.234 45.098 100.234 100.725-44.878 100.724-100.234 100.724z"/><polygon fill="#231F20" stroke="#000" stroke-width="1.134" stroke-miterlimit="10" points="2278.427,236.863 2278.427,330.07 2113.862,330.07 2113.862,236.863 2104.886,236.863 2104.886,444.324 2113.862,444.324 2113.862,339.09 2278.427,339.09 2278.427,444.324 2287.403,444.324 2287.403,236.863"/><rect x="1683.003" y="236.863" fill="#231F20" stroke="#000" stroke-width="1.134" stroke-miterlimit="10" width="8.977" height="25.932"/><polygon fill="#231F20" stroke="#000" stroke-width="1.134" stroke-miterlimit="10" points="2060.005,236.863 2054.021,236.863 2049.124,236.863 1889.456,435.002 1889.456,236.863 1880.48,236.863 1880.48,444.324 1881.944,444.324 1889.456,444.324 1892.825,444.324 2054.021,244.289 2054.021,444.324 2062.997,444.324 2062.997,236.863"/><path fill="#231F20" stroke="#000" stroke-width="1.134" stroke-miterlimit="10" d="M2500.927 444.324h9.073l-93.841-207.461h-12.162l-93.841 207.461h9.072l31.28-69.154h119.139l31.28 69.154zm-146.337-78.174l55.488-122.672 55.487 122.672h-110.975z"/><polygon fill="#231F20" stroke="#000" stroke-width="1.134" stroke-miterlimit="10" points="886.797,236.863 882.31,236.863 877.82,236.863 779.083,435.305 680.347,236.863 675.856,236.863 671.37,236.863 666.881,236.863 666.881,444.324 675.856,444.324 675.856,245.88 774.596,444.324 783.571,444.324 882.31,245.88 882.31,444.324 891.286,444.324 891.286,236.863"/><path stroke="#000" stroke-width="1.134" stroke-miterlimit="10" d="M675.856 236.863" fill="none"/><path fill="#231F20" stroke="#000" stroke-width="1.134" stroke-miterlimit="10" d="M1301.201 236.863h-113.7v207.462h8.977v-93.207h104.723c31.394 0 56.849-25.574 56.849-57.127s-25.455-57.128-56.849-57.128zm0 105.235h-104.723v-96.215h104.723c26.438 0 47.873 21.538 47.873 48.108s-21.435 48.107-47.873 48.107z"/><path fill="#231F20" stroke="#000" stroke-width="1.134" stroke-miterlimit="10" d="M1850.483 438.311v-3.006h-26.853v-198.443h-140.552v9.02h131.576v189.422h-158.664c16.704-27.783 27.854-63.314 33.146-105.871 3.06-24.609 2.849-75.344 2.837-77.494l-8.977.047c.004.521.22 52.3-2.767 76.328-5.362 43.102-17.386 79.947-34.827 106.99h-22.241v60.133h8.976v-51.113h209.445v51.113h8.977v-57.127h-.076z"/><path fill="#231F20" stroke="#000" stroke-width="1.134" stroke-miterlimit="10" d="M613.622 379.51c-15.148 36.305-50.845 61.809-92.471 61.809-55.356 0-100.235-45.098-100.235-100.725s44.879-100.724 100.235-100.724c39.814 0 74.207 23.33 90.382 57.126h9.852c-16.787-38.915-55.338-66.147-100.233-66.147-60.315 0-109.211 49.135-109.211 109.745s48.896 109.744 109.211 109.744c46.674 0 86.488-29.434 102.119-70.828h-9.649z"/><defs><path id="a" d="M180.991 166.348c94.436 0 170.991 76.929 170.991 171.824 0 94.9-76.555 171.828-170.991 171.828s-170.991-76.928-170.991-171.828c0-94.895 76.555-171.824 170.991-171.824z"/></defs><clipPath id="b"><use xlink:href="#a" overflow="visible"/></clipPath><g clip-path="url(#b)"><radialGradient id="c" cx="120.708" cy="454.171" r="207.433" gradientTransform="matrix(.901 -.435 -.377 -.788 223.272 819.76)" gradientUnits="userSpaceOnUse"><stop offset="0" stop-color="#A51ABF" stop-opacity=".9"/><stop offset=".541" stop-color="#8F16B5" stop-opacity=".972"/><stop offset=".748" stop-color="#8514B0"/><stop offset="1" stop-color="#691085"/></radialGradient><path fill="url(#c)" d="M180.991 166.348c94.436 0 170.991 76.929 170.991 171.824 0 94.9-76.555 171.828-170.991 171.828s-170.991-76.928-170.991-171.828c0-94.895 76.555-171.824 170.991-171.824z"/><radialGradient id="d" cx="161.635" cy="505.492" r="169.573" gradientTransform="matrix(.901 -.435 -.436 -.914 258.142 870.889)" gradientUnits="userSpaceOnUse"><stop offset="0" stop-color="#A51ABF" stop-opacity="0"/><stop offset=".498" stop-color="#A31ABD" stop-opacity=".498"/><stop offset=".678" stop-color="#9C19B7" stop-opacity=".678"/><stop offset=".806" stop-color="#9117AB" stop-opacity=".806"/><stop offset=".908" stop-color="#80149B" stop-opacity=".908"/><stop offset=".996" stop-color="#6A1086" stop-opacity=".996"/><stop offset="1" stop-color="#691085"/></radialGradient><path fill="url(#d)" d="M180.991 166.348c94.436 0 170.991 76.929 170.991 171.824 0 94.9-76.555 171.828-170.991 171.828s-170.991-76.928-170.991-171.828c0-94.895 76.555-171.824 170.991-171.824z"/></g><defs><path id="e" d="M180.991 166.348c94.436 0 170.991 76.929 170.991 171.824 0 94.9-76.555 171.828-170.991 171.828s-170.991-76.928-170.991-171.828c0-94.895 76.555-171.824 170.991-171.824z"/></defs><clipPath id="f"><use xlink:href="#e" overflow="visible"/></clipPath><radialGradient id="g" cx="294.486" cy="262.221" r="140.528" gradientTransform="matrix(1.312 .334 .205 -.814 -231.522 312.784)" gradientUnits="userSpaceOnUse"><stop offset="0" stop-color="#fff"/><stop offset=".111" stop-color="#F0E3F7" stop-opacity=".889"/><stop offset=".326" stop-color="#D7B1E8" stop-opacity=".674"/><stop offset=".53" stop-color="#C28ADD" stop-opacity=".47"/><stop offset=".716" stop-color="#B46ED5" stop-opacity=".284"/><stop offset=".879" stop-color="#AB5DD0" stop-opacity=".121"/><stop offset="1" stop-color="#A857CE" stop-opacity="0"/></radialGradient><path opacity=".3" clip-path="url(#f)" fill="url(#g)" enable-background="new" d="M393.1 244.531c-15.893 63.16-111.359 93.364-213.216 67.469-101.86-25.885-171.548-98.077-155.654-161.238 15.896-63.155 111.36-93.36 213.22-67.465 101.86 25.897 171.542 98.078 155.65 161.234z"/><defs><path id="h" d="M180.991 166.348c94.436 0 170.991 76.929 170.991 171.824 0 94.9-76.555 171.828-170.991 171.828s-170.991-76.928-170.991-171.828c0-94.895 76.555-171.824 170.991-171.824z"/></defs><clipPath id="i"><use xlink:href="#h" overflow="visible"/></clipPath><radialGradient id="j" cx="526.874" cy="241.552" r="64.418" gradientTransform="matrix(.709 .126 .114 -.649 -108.073 323.463)" gradientUnits="userSpaceOnUse"><stop offset="0" stop-color="#fff"/><stop offset="1" stop-color="#F2D4FF" stop-opacity="0"/></radialGradient><path opacity=".3" clip-path="url(#i)" fill="url(#j)" enable-background="new" d="M338.535 240.962c-4.059 23.106-27.785 38.202-52.998 33.731-25.211-4.465-42.36-26.821-38.304-49.923 4.056-23.099 27.782-38.197 52.999-33.729 25.213 4.479 42.362 26.824 38.303 49.921z"/><defs><path id="k" d="M180.991 166.348c94.436 0 170.991 76.929 170.991 171.824 0 94.9-76.555 171.828-170.991 171.828s-170.991-76.928-170.991-171.828c0-94.895 76.555-171.824 170.991-171.824z"/></defs><clipPath id="l"><use xlink:href="#k" overflow="visible"/></clipPath><radialGradient id="m" cx="242.637" cy="244.024" r="64.416" gradientTransform="matrix(.762 .135 .115 -.656 -109.095 325.497)" gradientUnits="userSpaceOnUse"><stop offset="0" stop-color="#fff"/><stop offset="1" stop-color="#F2D4FF" stop-opacity="0"/></radialGradient><path opacity=".3" clip-path="url(#l)" fill="url(#m)" enable-background="new" d="M153.057 207.044c-4.094 23.326-29.401 38.329-56.518 33.52-27.114-4.813-45.781-27.618-41.686-50.94 4.096-23.323 29.403-38.327 56.523-33.515 27.118 4.807 45.778 27.612 41.681 50.935z"/><g opacity=".6" filter="url(#n)"><radialGradient id="o" cx="1357.843" cy="57.58" r="76.709" gradientTransform="matrix(-.231 .978 1.612 .385 463.638 -1079.052)" gradientUnits="userSpaceOnUse"><stop offset="0" stop-color="#fff"/><stop offset=".347" stop-color="#E2C8EF" stop-opacity=".687"/><stop offset="1" stop-color="#A857CE" stop-opacity=".1"/></radialGradient><path fill="url(#o)" d="M320.939 272.309c-6.394 3.135-13.549 4.943-21.141 4.943-25.365 0-46.12-19.65-48.119-44.619-12.634 5.293-26.49 8.23-41.03 8.23-26.336 0-44.417-.605-63.015-16.499-5.685 15.562-16.462 14.62-32.913 18.04 11.968 30.066 35.246 47.449 77.94 65.619 58.731 25.002 118.339 16.807 133.127-18.287-1.617-5.24-4.609-8.248-4.849-17.427z"/></g><radialGradient id="p" cx="302.304" cy="588.504" r="58.612" gradientTransform="matrix(.901 -.435 -.377 -.788 250.079 827.323)" gradientUnits="userSpaceOnUse"><stop offset="0" stop-color="#A51ABF" stop-opacity=".9"/><stop offset=".541" stop-color="#8F16B5" stop-opacity=".972"/><stop offset=".748" stop-color="#8514B0"/><stop offset="1" stop-color="#731190"/></radialGradient><ellipse fill="url(#p)" cx="306.66" cy="211.89" rx="48.314" ry="48.552"/><linearGradient id="q" gradientUnits="userSpaceOnUse" x1="343.152" y1="317.957" x2="322.149" y2="270.757" gradientTransform="matrix(1 0 0 -1 -20.41 491.62)"><stop offset="0" stop-color="#fff"/><stop offset=".347" stop-color="#E2C8EF" stop-opacity=".687"/><stop offset="1" stop-color="#A857CE" stop-opacity=".1"/></linearGradient><path fill="url(#q)" d="M344.941 204.092c-4.175 9.916-21.018 12.232-37.614 5.168-16.597-7.062-26.66-20.83-22.484-30.748 4.184-9.919 21.023-12.232 37.623-5.168 16.596 7.065 26.656 20.833 22.475 30.748z"/><radialGradient id="r" cx="230.679" cy="690.451" r="131.21" gradientTransform="matrix(.901 -.435 -.377 -.788 255.422 808.211)" gradientUnits="userSpaceOnUse"><stop offset="0" stop-color="#A51ABF" stop-opacity=".95"/><stop offset=".541" stop-color="#8F16B5" stop-opacity=".986"/><stop offset=".748" stop-color="#8514B0"/><stop offset="1" stop-color="#731199"/></radialGradient><ellipse fill="url(#r)" cx="216.015" cy="118.686" rx="108.156" ry="108.686"/><linearGradient id="s" gradientUnits="userSpaceOnUse" x1="275.046" y1="463.245" x2="228.679" y2="359.047" gradientTransform="matrix(1 0 0 -1 -20.41 491.62)"><stop offset="0" stop-color="#fff"/><stop offset=".347" stop-color="#E2C8EF" stop-opacity=".687"/><stop offset="1" stop-color="#A857CE" stop-opacity=".1"/></linearGradient><path fill="url(#s)" d="M303.646 95.545c-9.228 21.893-46.412 27.002-83.048 11.407-36.637-15.597-58.856-45.987-49.625-67.879 9.23-21.896 46.411-27.004 83.046-11.41 36.637 15.597 58.855 45.99 49.627 67.882z"/><radialGradient id="t" cx="123.379" cy="687.977" r="58.613" gradientTransform="matrix(.901 -.435 -.377 -.788 247.481 795.739)" gradientUnits="userSpaceOnUse"><stop offset="0" stop-color="#A51ABF" stop-opacity=".9"/><stop offset=".541" stop-color="#8F16B5" stop-opacity=".972"/><stop offset=".748" stop-color="#8514B0"/><stop offset="1" stop-color="#731190"/></radialGradient><ellipse fill="url(#t)" cx="105.307" cy="179.706" rx="48.316" ry="48.552"/><linearGradient id="u" gradientUnits="userSpaceOnUse" x1="141.691" y1="350.022" x2="120.688" y2="302.822" gradientTransform="matrix(1 0 0 -1 -20.41 491.62)"><stop offset="0" stop-color="#fff"/><stop offset=".347" stop-color="#E2C8EF" stop-opacity=".687"/><stop offset="1" stop-color="#A857CE" stop-opacity=".1"/></linearGradient><path fill="url(#u)" d="M143.481 172.026c-4.177 9.916-21.02 12.232-37.616 5.167-16.597-7.062-26.66-20.83-22.483-30.748 4.183-9.918 21.022-12.232 37.62-5.167 16.597 7.064 26.659 20.832 22.479 30.748z"/></svg>