<?xml version="1.0" encoding="utf-8"?>
<!-- Generator: Adobe Illustrator 15.1.0, SVG Export Plug-In . SVG Version: 6.00 Build 0)  -->
<!DOCTYPE svg PUBLIC "-//W3C//DTD SVG 1.1//EN" "http://www.w3.org/Graphics/SVG/1.1/DTD/svg11.dtd">
<svg version="1.1" id="Layer_1" xmlns="http://www.w3.org/2000/svg" xmlns:xlink="http://www.w3.org/1999/xlink" x="0px" y="0px"
	 width="595.28px" height="841.89px" viewBox="0 0 595.28 841.89" enable-background="new 0 0 595.28 841.89" xml:space="preserve">
<g>
	<path fill="#C7AF9A" d="M0,1.225V0c3.959,0.513,7.177,2.082,9.655,4.705c2.477,2.623,3.716,5.544,3.716,8.762
		c0,1.679-0.272,3.626-0.818,5.841c-0.545,2.215-0.818,3.94-0.818,5.176c0,1.679,0.717,3.248,2.151,4.705
		c1.435,1.458,3.42,2.349,5.957,2.676v1.434c-2.537,0.327-4.522,1.219-5.957,2.676c-1.434,1.457-2.151,3.025-2.151,4.704
		c0,1.236,0.273,2.968,0.818,5.194c0.545,2.227,0.818,4.18,0.818,5.858c0,3.171-1.239,6.074-3.716,8.709
		C7.177,63.075,3.959,64.66,0,65.197v-1.225c2.774-0.676,4.807-1.749,6.099-3.218c1.292-1.469,1.938-3.101,1.938-4.896
		c0-1.376-0.272-3.189-0.818-5.439c-0.545-2.25-0.818-4.157-0.818-5.719c0-2.378,0.883-4.675,2.649-6.891
		c1.766-2.215,4.392-3.929,7.876-5.142c-3.414-1.236-6.021-2.984-7.823-5.247c-1.802-2.261-2.703-4.57-2.703-6.925
		c0-1.585,0.272-3.503,0.818-5.753s0.818-4.063,0.818-5.439c0-1.772-0.646-3.398-1.938-4.879S2.774,1.877,0,1.225z"/>
</g>
</svg>
