<?xml version="1.0" encoding="utf-8"?>
<!DOCTYPE svg PUBLIC "-//W3C//DTD SVG 1.1//EN" "http://www.w3.org/Graphics/SVG/1.1/DTD/svg11.dtd">
<svg version="1.1" xmlns="http://www.w3.org/2000/svg" viewBox="0 0 20 65">
<g>
	<path fill="#C7AF9A" d="M0,1.221V0c3.99,0.512,7.234,2.075,9.731,4.69c2.497,2.615,3.745,5.527,3.745,8.735
		c0,1.673-0.274,3.615-0.824,5.823c-0.549,2.209-0.825,3.929-0.825,5.161c0,1.674,0.723,3.238,2.168,4.69
		c1.446,1.453,3.447,2.342,6.004,2.667v1.43c-2.557,0.326-4.558,1.215-6.004,2.668c-1.445,1.453-2.168,3.016-2.168,4.69
		c0,1.232,0.275,2.958,0.825,5.179c0.55,2.22,0.824,4.167,0.824,5.84c0,3.162-1.249,6.056-3.745,8.684
		C7.234,62.884,3.99,64.464,0,65v-1.221c2.796-0.674,4.845-1.744,6.147-3.208S8.1,57.479,8.1,55.689c0-1.373-0.274-3.18-0.824-5.422
		c-0.55-2.244-0.824-4.145-0.824-5.702c0-2.371,0.89-4.661,2.67-6.87c1.78-2.208,4.426-3.917,7.939-5.126
		c-3.44-1.232-6.069-2.976-7.885-5.231c-1.816-2.254-2.724-4.556-2.724-6.904c0-1.581,0.274-3.493,0.824-5.736
		C7.826,12.455,8.1,10.648,8.1,9.276c0-1.767-0.651-3.388-1.953-4.865C4.845,2.935,2.796,1.872,0,1.221z"/>
</g>
</svg>
