<?xml version="1.0" encoding="utf-8"?>
<!DOCTYPE svg PUBLIC "-//W3C//DTD SVG 1.1//EN" "http://www.w3.org/Graphics/SVG/1.1/DTD/svg11.dtd">
<svg version="1.1" xmlns="http://www.w3.org/2000/svg" width="38px" height="38px">
<g>
	<g>
		<path fill="#FFFFFF" d="M33.162,38c-0.02-1.229-0.04,0-0.063-1.23c-0.025-1.499,0.063-2.962,0.368-4.436
			c0.28-1.354,0.7-2.635,1.274-3.893c0.284-0.619,0.599-1.218,0.95-1.802c0.347-0.577,0.755-1.112,1.115-1.678
			c0.675-1.063,1.028-2.128,1.122-3.382c0.053-0.727,0.002-1.448-0.013-2.172c-0.017-0.798-0.033-1.594-0.05-2.39
			C37.749,11.58,37.621,6.144,37.45,0.71c-0.013-0.395-0.337-0.708-0.734-0.708c-0.073,0-0.146,0-0.22,0
			c-0.399,0-0.725,0.318-0.733,0.717c-0.112,5.616-0.225,11.233-0.337,16.851c-0.008,0.397-0.333,0.715-0.733,0.715
			c-0.132,0-0.264,0-0.396,0c-0.398,0-0.725-0.318-0.732-0.715c-0.113-5.617-0.226-11.234-0.338-16.851
			c-0.008-0.398-0.334-0.717-0.734-0.717c-0.07,0-0.141,0-0.211,0c-0.4,0-0.726,0.318-0.734,0.717
			c-0.112,5.616-0.225,11.233-0.337,16.851c-0.008,0.397-0.334,0.715-0.733,0.715c-0.132,0-0.264,0-0.396,0
			c-0.399,0-0.726-0.318-0.733-0.715c-0.113-5.617-0.225-11.234-0.338-16.851c-0.007-0.398-0.333-0.717-0.732-0.717
			c-0.071,0-0.141,0-0.212,0c-0.399,0-0.725,0.318-0.733,0.717c-0.112,5.616-0.226,11.233-0.338,16.851
			c-0.008,0.397-0.334,0.715-0.734,0.715c-0.132,0-0.263,0-0.395,0c-0.399,0-0.726-0.318-0.733-0.715
			c-0.112-5.617-0.225-11.234-0.338-16.851c-0.008-0.398-0.333-0.717-0.732-0.717c-0.074,0-0.147,0-0.222,0
			c-0.396,0-0.72,0.313-0.733,0.708c-0.17,5.436-0.299,10.873-0.416,16.311c-0.016,0.795-0.034,1.59-0.049,2.387
			c-0.016,0.723-0.067,1.444-0.014,2.17c0.093,1.252,0.445,2.316,1.119,3.378c0.361,0.567,0.77,1.102,1.117,1.68
			c0.351,0.583,0.667,1.184,0.951,1.803c0.575,1.259,0.995,2.542,1.274,3.897c0.305,1.475,0.394,2.94,0.368,4.439
			c-0.021,1.231-0.042-0.004-0.063,1.228L33.162,38z"/>
		<path fill="#FFFFFF" d="M12.515,38.001c-0.024-1.441-0.118-1.872-0.01-3.317c0.249-3.376,1.434-6.617,3.419-9.36
			c1.219-1.683,3.226-3.853,3.41-7.296c-0.019-4.293-0.964-6.723-2.046-9.984c-2.273-6.854-5.509-8.033-7.645-8.041l0,0l0,0
			C7.506,0.01,4.27,1.189,1.997,8.043c-1.082,3.261-2.027,5.691-2.045,9.984c0.183,3.443,2.191,5.614,3.41,7.296
			c1.984,2.742,3.168,5.979,3.419,9.353c0.107,1.448,0.014,1.88-0.01,3.324H12.515z"/>
	</g>
</g>
</svg>
