<?xml version="1.0" encoding="utf-8"?>
<!DOCTYPE svg PUBLIC "-//W3C//DTD SVG 1.1//EN" "http://www.w3.org/Graphics/SVG/1.1/DTD/svg11.dtd">
<svg version="1.1" xmlns="http://www.w3.org/2000/svg" viewBox="0 0 222 22">
<g>
	<path fill="#382E27" d="M4.729,8.419c0.43-1.312,0.473-1.735,0.473-1.988c0-0.212-0.043-0.465-0.43-0.465
		c-0.258,0-0.645,0.253-1.892,1.692c-0.473,0.55-1.118,1.354-1.891,1.354C0.516,9.011,0,8.715,0,8.038
		C0,7.572,0.258,7.023,0.989,6.05C4.083,2.03,7.609,0,11.435,0c2.278,0,4.212,0.634,4.212,3.088c0,0.847-0.258,1.819-0.516,2.666
		l-0.515,1.861c-0.258,0.889-0.43,1.27,0.558,1.27h2.623c0.73,0,1.418-0.551,1.719-1.566l1.419-4.527
		c0.602-1.862,0.902-1.946,2.322-1.946h6.792c0.601,0,0.859,0.084,0.859,0.804c0,0.338-0.086,0.719-0.343,1.522l-2.58,8.758
		c-0.43,1.439-0.473,1.988-0.473,2.286c0,0.38,0.086,0.804,0.645,0.804c0.688,0,1.247-1.016,1.849-1.947
		c0.602-0.888,1.118-1.65,1.935-1.65c0.473,0,0.945,0.339,0.945,0.973c0,0.084,0,1.312-1.891,3.639
		C27.426,20.477,23.299,22,19.388,22c-1.333,0-3.439,0.042-3.439-2.284c0-0.973,0.429-2.496,0.601-3.004l0.989-3.13
		c0.172-0.508,0.214-1.396-1.117-1.396h-1.892c-1.461,0-1.591,1.142-1.977,2.242l-1.333,3.977c-0.344,1.017-0.688,2.75-3.181,2.75
		H3.31c-0.816,0-2.278,0.084-2.278-1.312c0-0.253,0.086-0.549,0.646-2.199L4.729,8.419z"/>
	<path fill="#382E27" d="M59.024,12.565c-0.085,0.253-0.301,1.142-0.301,1.566c0,0.38,0.215,0.549,0.516,0.549
		c0.688,0,1.333-1.015,2.364-2.243c0.258-0.295,0.774-0.93,1.419-0.93c0.516,0,1.031,0.296,1.031,1.058
		c0,0.847-0.602,1.692-1.203,2.496C60.787,17.854,57.563,22,51.501,22c-1.375,0-3.095-0.379-3.095-3.427
		c0-1.524,0.645-3.595,1.204-5.077l-0.086-0.083C44.064,20.985,40.238,22,38.003,22c-3.955,0-4.255-3.85-4.255-5.162
		c0-3.257,1.547-6.092,3.095-8.292c4.213-5.923,9.414-7.7,12.595-7.7c0.73,0,1.504,0.127,2.063,0.338
		c0.387,0.127,0.645,0.296,1.032,0.296c0.559,0,0.902-0.338,1.118-0.55C54.252,0.295,54.511,0,56.015,0h5.244
		c0.602,0,1.375,0.084,1.375,1.1c0,0.55-0.301,1.65-0.472,2.158L59.024,12.565z M44.795,14.385c1.677,0,7.522-7.15,7.522-9.773
		c0-0.592-0.301-0.846-0.903-0.846c-2.407,0-7.78,6.22-7.78,9.181C43.635,14.004,44.279,14.385,44.795,14.385z"/>
	<path fill="#382E27" d="M82.798,10.322c0.688-0.126,1.375-0.168,2.064-0.168c2.579,0,5.287,0.974,5.287,3.892
		c0,3.216-3.009,7.954-13.972,7.954c-9.242,0-10.617-4.951-10.617-7.954C65.56,7.826,71.664,0,85.592,0
		c6.448,0,6.491,2.876,6.491,3.977c0,4.612-7.265,5.838-9.329,6.134L82.798,10.322z M75.447,16.161c0,2.2,0.516,2.963,1.676,2.963
		c1.504,0,3.568-1.354,3.568-4.316c0-1.608-0.3-2.834-2.321-2.834c-0.731,0-1.763,0.211-2.364,0.422
		C75.705,13.454,75.447,14.978,75.447,16.161z M83.013,4.442c0-1.015-0.343-1.565-1.418-1.565c-1.677,0-3.568,1.396-4.987,6.516
		C82.195,8.757,83.013,5.923,83.013,4.442z"/>
	<path fill="#382E27" d="M106.399,8.757c2.536-0.507,4.169-0.592,4.943-0.592c5.759,0,6.32,3.893,6.32,5.5
		c0,4.23-4.945,8.334-13.154,8.334c-8.125,0-9.759-3.511-9.759-6.261c0-1.523,0.646-2.961,1.29-4.442l1.29-2.962
		c0.387-0.846,0.516-1.396,0.516-1.903c0-0.212-0.043-0.465-0.43-0.465c-0.257,0-0.644,0.253-1.891,1.692
		c-0.473,0.55-1.118,1.354-1.892,1.354c-0.473,0-0.988-0.296-0.988-0.973c0-0.466,0.258-1.015,0.988-1.988
		C96.728,2.03,100.252,0,104.078,0c3.182,0,4.213,1.396,4.213,3.088c0,0.762-0.386,1.904-0.687,2.666L106.399,8.757z
		 M103.691,16.965c0,1.862,0.559,2.158,1.117,2.158c1.762,0,3.825-2.158,3.825-5.034c0-1.059-0.042-3.005-1.504-3.005
		c-0.559,0-1.289,0.127-1.891,0.423C104.638,12.818,103.691,15.104,103.691,16.965z M132.751,12.185
		c0.257-0.381,0.687-0.762,1.119-0.762c0.385,0,0.945,0.211,0.945,1.099c0,1.017-0.517,1.863-0.945,2.498
		c-4,6.134-8.899,6.98-11.521,6.98c-0.947,0-3.654-0.126-3.654-3.511c0-1.058,0.257-2.031,0.645-3.13l4.514-12.566
		c0.687-1.862,0.815-1.946,2.321-1.946h6.792c0.56,0,0.86,0.084,0.86,0.804c0,0.338-0.172,1.1-0.345,1.522l-3.611,10.197
		c-0.343,0.931-0.429,1.269-0.429,1.565c0,0.466,0.3,0.551,0.517,0.551c0.601,0,1.247-1.058,2.192-2.412L132.751,12.185z"/>
	<path fill="#382E27" d="M140.835,8.419c0.43-1.312,0.473-1.735,0.473-1.988c0-0.212-0.043-0.465-0.431-0.465
		c-0.257,0-0.644,0.253-1.891,1.692c-0.474,0.55-1.117,1.354-1.892,1.354c-0.473,0-0.988-0.296-0.988-0.973
		c0-0.466,0.256-1.015,0.988-1.988c3.094-4.02,6.62-6.05,10.445-6.05c2.278,0,4.213,0.634,4.213,3.088
		c0,0.847-0.258,1.819-0.516,2.666l-0.516,1.861c-0.258,0.889-0.429,1.27,0.559,1.27h2.623c0.73,0,1.418-0.551,1.719-1.566
		l1.419-4.527c0.601-1.862,0.902-1.946,2.321-1.946h6.792c0.601,0,0.859,0.084,0.859,0.804c0,0.338-0.086,0.719-0.344,1.522
		l-2.578,8.758c-0.432,1.439-0.474,1.988-0.474,2.286c0,0.38,0.084,0.804,0.644,0.804c0.688,0,1.247-1.016,1.85-1.947
		c0.6-0.888,1.117-1.65,1.933-1.65c0.474,0,0.947,0.339,0.947,0.973c0,0.084,0,1.312-1.892,3.639
		C163.533,20.477,159.406,22,155.494,22c-1.333,0-3.439,0.042-3.439-2.284c0-0.973,0.431-2.496,0.602-3.004l0.988-3.13
		c0.171-0.508,0.216-1.396-1.118-1.396h-1.889c-1.464,0-1.591,1.142-1.979,2.242l-1.332,3.977c-0.343,1.017-0.689,2.75-3.181,2.75
		h-4.728c-0.818,0-2.28,0.084-2.28-1.312c0-0.253,0.086-0.549,0.645-2.199L140.835,8.419z"/>
	<path fill="#382E27" d="M196.463,9.222c0,6.896-6.533,12.777-14.701,12.777c-5.547,0-11.049-3.639-11.049-9.941
		c0-7.447,7.48-12.058,14.745-12.058C191.563,0,196.463,3.469,196.463,9.222z M180.86,10.746c-0.947,3.217-1.033,5.036-1.033,5.797
		c0,0.804,0.086,2.581,1.418,2.581c2.796,0,4.384-5.332,5.246-8.504c0.688-2.581,0.859-4.146,0.859-5.162
		c0-0.973-0.128-2.581-1.46-2.581C183.094,2.876,181.589,8.25,180.86,10.746z"/>
	<path fill="#382E27" d="M215.292,0C218.602,0,222,0.93,222,3.469c0,1.566-1.207,3.597-3.526,3.597c-2.408,0-3.311-1.608-3.696-2.37
		c-0.301-0.55-0.732-1.946-1.248-1.946c-0.128,0-0.43,0.085-1.074,1.057c-2.795,4.063-3.956,7.785-3.956,10.239
		c0,1.396,0.258,2.919,2.407,2.919c2.709,0,5.03-2.919,6.362-4.654c0.301-0.381,0.517-0.719,1.119-0.719
		c1.117,0,1.16,1.016,0.602,2.371C217.916,16.585,214.045,22,206.395,22c-5.976,0-7.781-4.4-7.781-7.868
		C198.614,6.134,206.824,0,215.292,0z"/>
</g>
</svg>
